# xmcd CD database file
#
# Track frame offsets:
#	150
#	24632
#	43865
#	64795
#	83095
#	102765
#	118402
#	135090
#	156595
#	178255
#	201390
#	218267
#	238575
#
# Disc length: 3831 seconds
#
# Revision: 0
# Processed by: cddbd v1.5.1PL2 Copyright (c) Steve Scherf et al.
# Submitted via: CDex 1.51
#
DISCID=b50ef50d
DTITLE=V6 - musicmind
DYEAR=2005
DGENRE=JPop
TTITLE0=JAM JAM NIGHT
TTITLE1=サンダーバード-your voice-
TTITLE2=恋と弾丸/MASAYUKI SAKAMOTO and KEN MIYAKE
TTITLE3=ありがとうのうた
TTITLE4=ずっと僕らは/GO MORITA and JUNICHI OKADA
TTITLE5=BLAZING AGE/20th Century
TTITLE6=Rudery big up/Coming Century
TTITLE7=それぞれの空
TTITLE8=夕焼けドロップ/HIROSHI NAGANO and YOSHIHIKO INOHARA
TTITLE9=UTAO-UTAO
TTITLE10=ユメニアイニ/JUNICHI OKADA
TTITLE11=Wonder World
TTITLE12=UTAO-UTAO"musicmind ver."
EXTD=YEAR: 2005
EXTT0=
EXTT1=
EXTT2=
EXTT3=
EXTT4=
EXTT5=
EXTT6=
EXTT7=
EXTT8=
EXTT9=
EXTT10=
EXTT11=
EXTT12=
PLAYORDER=
